<mxfile host="app.diagrams.net" modified="2024-03-29T19:39:51.354Z" agent="Mozilla/5.0 (Windows NT 10.0; Win64; x64) AppleWebKit/537.36 (KHTML, like Gecko) Chrome/123.0.0.0 Safari/537.36" etag="RxFiN6dTQlO_OCsfNV7Y" version="24.1.0" type="google">
  <diagram name="Página-1" id="41oRJp7OCIod9Ay3Y_Ew">
    <mxGraphModel grid="1" page="1" gridSize="10" guides="1" tooltips="1" connect="1" arrows="1" fold="1" pageScale="1" pageWidth="827" pageHeight="1169" math="0" shadow="0">
      <root>
        <mxCell id="0" />
        <mxCell id="1" parent="0" />
        <mxCell id="Jgy3aD1YDtRB1XsUq34n-3" value="" style="edgeStyle=orthogonalEdgeStyle;rounded=0;orthogonalLoop=1;jettySize=auto;html=1;" edge="1" parent="1" source="Jgy3aD1YDtRB1XsUq34n-1" target="Jgy3aD1YDtRB1XsUq34n-2">
          <mxGeometry relative="1" as="geometry" />
        </mxCell>
        <mxCell id="Jgy3aD1YDtRB1XsUq34n-1" value="Início&amp;nbsp;" style="strokeWidth=2;html=1;shape=mxgraph.flowchart.start_1;whiteSpace=wrap;" vertex="1" parent="1">
          <mxGeometry x="270" y="40" width="140" height="40" as="geometry" />
        </mxCell>
        <mxCell id="Jgy3aD1YDtRB1XsUq34n-5" value="" style="edgeStyle=orthogonalEdgeStyle;rounded=0;orthogonalLoop=1;jettySize=auto;html=1;" edge="1" parent="1" source="Jgy3aD1YDtRB1XsUq34n-2" target="Jgy3aD1YDtRB1XsUq34n-4">
          <mxGeometry relative="1" as="geometry" />
        </mxCell>
        <mxCell id="Jgy3aD1YDtRB1XsUq34n-2" value="i = 1&lt;div&gt;qpares, prod, soma = 0&lt;/div&gt;" style="rounded=1;whiteSpace=wrap;html=1;absoluteArcSize=1;arcSize=14;strokeWidth=2;" vertex="1" parent="1">
          <mxGeometry x="275" y="140" width="130" height="60" as="geometry" />
        </mxCell>
        <mxCell id="Jgy3aD1YDtRB1XsUq34n-7" value="" style="edgeStyle=orthogonalEdgeStyle;rounded=0;orthogonalLoop=1;jettySize=auto;html=1;" edge="1" parent="1" source="Jgy3aD1YDtRB1XsUq34n-4" target="Jgy3aD1YDtRB1XsUq34n-6">
          <mxGeometry relative="1" as="geometry" />
        </mxCell>
        <mxCell id="Jgy3aD1YDtRB1XsUq34n-14" value="" style="edgeStyle=orthogonalEdgeStyle;rounded=0;orthogonalLoop=1;jettySize=auto;html=1;" edge="1" parent="1" source="Jgy3aD1YDtRB1XsUq34n-4" target="Jgy3aD1YDtRB1XsUq34n-13">
          <mxGeometry relative="1" as="geometry" />
        </mxCell>
        <mxCell id="Jgy3aD1YDtRB1XsUq34n-4" value="i &amp;gt; 20" style="strokeWidth=2;html=1;shape=mxgraph.flowchart.decision;whiteSpace=wrap;" vertex="1" parent="1">
          <mxGeometry x="280" y="240" width="120" height="90" as="geometry" />
        </mxCell>
        <mxCell id="Jgy3aD1YDtRB1XsUq34n-12" value="" style="edgeStyle=orthogonalEdgeStyle;rounded=0;orthogonalLoop=1;jettySize=auto;html=1;" edge="1" parent="1" source="Jgy3aD1YDtRB1XsUq34n-6" target="Jgy3aD1YDtRB1XsUq34n-11">
          <mxGeometry relative="1" as="geometry">
            <Array as="points">
              <mxPoint x="340" y="530" />
              <mxPoint x="332" y="530" />
            </Array>
          </mxGeometry>
        </mxCell>
        <mxCell id="Jgy3aD1YDtRB1XsUq34n-22" value="" style="edgeStyle=orthogonalEdgeStyle;rounded=0;orthogonalLoop=1;jettySize=auto;html=1;" edge="1" parent="1" source="Jgy3aD1YDtRB1XsUq34n-6" target="Jgy3aD1YDtRB1XsUq34n-21">
          <mxGeometry relative="1" as="geometry" />
        </mxCell>
        <mxCell id="Jgy3aD1YDtRB1XsUq34n-6" value="i%2=0" style="strokeWidth=2;html=1;shape=mxgraph.flowchart.decision;whiteSpace=wrap;" vertex="1" parent="1">
          <mxGeometry x="280" y="390" width="120" height="90" as="geometry" />
        </mxCell>
        <mxCell id="Jgy3aD1YDtRB1XsUq34n-8" value="Não&amp;nbsp;" style="text;strokeColor=none;align=center;fillColor=none;html=1;verticalAlign=middle;whiteSpace=wrap;rounded=0;" vertex="1" parent="1">
          <mxGeometry x="330" y="340" width="60" height="30" as="geometry" />
        </mxCell>
        <mxCell id="Jgy3aD1YDtRB1XsUq34n-9" value="Sim" style="text;strokeColor=none;align=center;fillColor=none;html=1;verticalAlign=middle;whiteSpace=wrap;rounded=0;" vertex="1" parent="1">
          <mxGeometry x="440" y="250" width="60" height="30" as="geometry" />
        </mxCell>
        <mxCell id="Jgy3aD1YDtRB1XsUq34n-20" value="" style="edgeStyle=orthogonalEdgeStyle;rounded=0;orthogonalLoop=1;jettySize=auto;html=1;" edge="1" parent="1" source="Jgy3aD1YDtRB1XsUq34n-11" target="Jgy3aD1YDtRB1XsUq34n-19">
          <mxGeometry relative="1" as="geometry" />
        </mxCell>
        <mxCell id="Jgy3aD1YDtRB1XsUq34n-11" value="qpares = qpares + 1" style="rounded=1;whiteSpace=wrap;html=1;absoluteArcSize=1;arcSize=14;strokeWidth=2;" vertex="1" parent="1">
          <mxGeometry x="278" y="520" width="124" height="40" as="geometry" />
        </mxCell>
        <mxCell id="Jgy3aD1YDtRB1XsUq34n-16" value="" style="edgeStyle=orthogonalEdgeStyle;rounded=0;orthogonalLoop=1;jettySize=auto;html=1;" edge="1" parent="1" source="Jgy3aD1YDtRB1XsUq34n-13" target="Jgy3aD1YDtRB1XsUq34n-15">
          <mxGeometry relative="1" as="geometry" />
        </mxCell>
        <mxCell id="Jgy3aD1YDtRB1XsUq34n-13" value="Exibir Prod impares" style="strokeWidth=2;html=1;shape=mxgraph.flowchart.document2;whiteSpace=wrap;size=0.25;" vertex="1" parent="1">
          <mxGeometry x="570" y="255" width="100" height="60" as="geometry" />
        </mxCell>
        <mxCell id="Jgy3aD1YDtRB1XsUq34n-18" value="" style="edgeStyle=orthogonalEdgeStyle;rounded=0;orthogonalLoop=1;jettySize=auto;html=1;" edge="1" parent="1" source="Jgy3aD1YDtRB1XsUq34n-15" target="Jgy3aD1YDtRB1XsUq34n-17">
          <mxGeometry relative="1" as="geometry" />
        </mxCell>
        <mxCell id="Jgy3aD1YDtRB1XsUq34n-15" value="Exibir qpares" style="strokeWidth=2;html=1;shape=mxgraph.flowchart.document2;whiteSpace=wrap;size=0.25;" vertex="1" parent="1">
          <mxGeometry x="570" y="340" width="100" height="60" as="geometry" />
        </mxCell>
        <mxCell id="Jgy3aD1YDtRB1XsUq34n-34" value="" style="edgeStyle=orthogonalEdgeStyle;rounded=0;orthogonalLoop=1;jettySize=auto;html=1;" edge="1" parent="1" source="Jgy3aD1YDtRB1XsUq34n-17" target="Jgy3aD1YDtRB1XsUq34n-33">
          <mxGeometry relative="1" as="geometry" />
        </mxCell>
        <mxCell id="Jgy3aD1YDtRB1XsUq34n-17" value="Exibir soma" style="strokeWidth=2;html=1;shape=mxgraph.flowchart.document2;whiteSpace=wrap;size=0.25;" vertex="1" parent="1">
          <mxGeometry x="570" y="425" width="100" height="60" as="geometry" />
        </mxCell>
        <mxCell id="Jgy3aD1YDtRB1XsUq34n-19" value="soma = soma + 1" style="rounded=1;whiteSpace=wrap;html=1;absoluteArcSize=1;arcSize=14;strokeWidth=2;" vertex="1" parent="1">
          <mxGeometry x="100" y="520" width="124" height="40" as="geometry" />
        </mxCell>
        <mxCell id="Jgy3aD1YDtRB1XsUq34n-27" value="" style="edgeStyle=orthogonalEdgeStyle;rounded=0;orthogonalLoop=1;jettySize=auto;html=1;" edge="1" parent="1" source="Jgy3aD1YDtRB1XsUq34n-21" target="Jgy3aD1YDtRB1XsUq34n-26">
          <mxGeometry relative="1" as="geometry" />
        </mxCell>
        <mxCell id="Jgy3aD1YDtRB1XsUq34n-21" value="prod = prod x i" style="rounded=1;whiteSpace=wrap;html=1;absoluteArcSize=1;arcSize=14;strokeWidth=2;" vertex="1" parent="1">
          <mxGeometry x="100" y="415" width="124" height="40" as="geometry" />
        </mxCell>
        <mxCell id="Jgy3aD1YDtRB1XsUq34n-30" value="" style="edgeStyle=orthogonalEdgeStyle;rounded=0;orthogonalLoop=1;jettySize=auto;html=1;" edge="1" parent="1" source="Jgy3aD1YDtRB1XsUq34n-23" target="Jgy3aD1YDtRB1XsUq34n-4">
          <mxGeometry relative="1" as="geometry" />
        </mxCell>
        <mxCell id="Jgy3aD1YDtRB1XsUq34n-23" value="i = i + 1" style="rounded=1;whiteSpace=wrap;html=1;absoluteArcSize=1;arcSize=14;strokeWidth=2;" vertex="1" parent="1">
          <mxGeometry x="90" y="265" width="124" height="40" as="geometry" />
        </mxCell>
        <mxCell id="Jgy3aD1YDtRB1XsUq34n-29" style="edgeStyle=orthogonalEdgeStyle;rounded=0;orthogonalLoop=1;jettySize=auto;html=1;entryX=0;entryY=0.5;entryDx=0;entryDy=0;" edge="1" parent="1" source="Jgy3aD1YDtRB1XsUq34n-26" target="Jgy3aD1YDtRB1XsUq34n-23">
          <mxGeometry relative="1" as="geometry">
            <Array as="points">
              <mxPoint x="40" y="285" />
            </Array>
          </mxGeometry>
        </mxCell>
        <mxCell id="Jgy3aD1YDtRB1XsUq34n-26" value="" style="shape=waypoint;sketch=0;size=6;pointerEvents=1;points=[];fillColor=default;resizable=0;rotatable=0;perimeter=centerPerimeter;snapToPoint=1;rounded=1;arcSize=14;strokeWidth=2;" vertex="1" parent="1">
          <mxGeometry x="30" y="425" width="20" height="20" as="geometry" />
        </mxCell>
        <mxCell id="Jgy3aD1YDtRB1XsUq34n-28" style="edgeStyle=orthogonalEdgeStyle;rounded=0;orthogonalLoop=1;jettySize=auto;html=1;entryX=0.5;entryY=1.1;entryDx=0;entryDy=0;entryPerimeter=0;" edge="1" parent="1" source="Jgy3aD1YDtRB1XsUq34n-19" target="Jgy3aD1YDtRB1XsUq34n-26">
          <mxGeometry relative="1" as="geometry" />
        </mxCell>
        <mxCell id="Jgy3aD1YDtRB1XsUq34n-31" value="Sim" style="text;strokeColor=none;align=center;fillColor=none;html=1;verticalAlign=middle;whiteSpace=wrap;rounded=0;" vertex="1" parent="1">
          <mxGeometry x="330" y="480" width="60" height="30" as="geometry" />
        </mxCell>
        <mxCell id="Jgy3aD1YDtRB1XsUq34n-32" value="Não&amp;nbsp;" style="text;strokeColor=none;align=center;fillColor=none;html=1;verticalAlign=middle;whiteSpace=wrap;rounded=0;" vertex="1" parent="1">
          <mxGeometry x="224" y="405" width="60" height="30" as="geometry" />
        </mxCell>
        <mxCell id="Jgy3aD1YDtRB1XsUq34n-33" value="Fim" style="strokeWidth=2;html=1;shape=mxgraph.flowchart.terminator;whiteSpace=wrap;" vertex="1" parent="1">
          <mxGeometry x="570" y="520" width="100" height="40" as="geometry" />
        </mxCell>
      </root>
    </mxGraphModel>
  </diagram>
</mxfile>
